<?xml version="1.0" encoding="UTF-8"?>
<!DOCTYPE svg PUBLIC "-//W3C//DTD SVG 1.1//EN" "http://www.w3.org/Graphics/SVG/1.1/DTD/svg11.dtd">
<svg xmlns="http://www.w3.org/2000/svg" version="1.1" width="1478px" height="436px" style="shape-rendering:geometricPrecision; text-rendering:geometricPrecision; image-rendering:optimizeQuality; fill-rule:evenodd; clip-rule:evenodd" xmlns:xlink="http://www.w3.org/1999/xlink">
<g><path style="opacity:1" fill="#fefefe" d="M -0.5,-0.5 C 492.167,-0.5 984.833,-0.5 1477.5,-0.5C 1477.5,144.833 1477.5,290.167 1477.5,435.5C 984.833,435.5 492.167,435.5 -0.5,435.5C -0.5,290.167 -0.5,144.833 -0.5,-0.5 Z"/></g>
<g><path style="opacity:1" fill="#0f1149" d="M 148.5,372.5 C 143.228,383.377 138.228,394.377 133.5,405.5C 78.5997,378.753 42.0997,336.086 24,277.5C 3.12716,192.133 25.2938,120.299 90.5,62C 145.126,19.7646 206.126,6.76464 273.5,23C 345.804,44.8913 393.638,91.7246 417,163.5C 422.616,183.81 424.949,204.477 424,225.5C 421.372,234.076 415.538,238.742 406.5,239.5C 397.669,239.165 391.836,234.832 389,226.5C 387.184,151.974 353.017,98.4738 286.5,66C 221.961,41.3606 162.961,50.6939 109.5,94C 60.305,140.597 43.1383,197.097 58,263.5C 72.3567,313.018 102.523,349.351 148.5,372.5 Z"/></g>
<g><path style="opacity:1" fill="#020202" d="M 550.5,44.5 C 564.505,45.0025 576.505,50.1692 586.5,60C 582.044,66.1249 577.211,71.9583 572,77.5C 553.456,63.1172 538.456,66.1172 527,86.5C 521.351,102.823 522.684,118.489 531,133.5C 545.539,147.019 559.873,146.686 574,132.5C 578.476,138.61 583.309,144.443 588.5,150C 577.196,162.148 563.196,167.981 546.5,167.5C 511.922,162.071 494.922,141.738 495.5,106.5C 494.941,80.0931 506.275,60.9264 529.5,49C 536.437,46.6272 543.437,45.1272 550.5,44.5 Z"/></g>
<g><path style="opacity:1" fill="#010101" d="M 646.5,44.5 C 683.679,47.2776 702.012,67.4443 701.5,105C 702.502,125.68 695.502,143.013 680.5,157C 659.306,169.991 637.973,170.324 616.5,158C 600.688,143.747 593.354,125.914 594.5,104.5C 593.881,68.4769 611.214,48.4769 646.5,44.5 Z"/></g>
<g><path style="opacity:1" fill="#020202" d="M 1326.5,44.5 C 1340.51,45.0025 1352.51,50.1692 1362.5,60C 1358.04,66.1249 1353.21,71.9583 1348,77.5C 1329.46,63.1172 1314.46,66.1172 1303,86.5C 1297.35,102.823 1298.68,118.489 1307,133.5C 1321.54,147.019 1335.87,146.686 1350,132.5C 1354.48,138.61 1359.31,144.443 1364.5,150C 1353.2,162.148 1339.2,167.981 1322.5,167.5C 1287.92,162.071 1270.92,141.738 1271.5,106.5C 1270.94,80.0931 1282.27,60.9264 1305.5,49C 1312.44,46.6272 1319.44,45.1272 1326.5,44.5 Z"/></g>
<g><path style="opacity:1" fill="#020202" d="M 1425.5,44.5 C 1439.51,45.0025 1451.51,50.1692 1461.5,60C 1457.04,66.1249 1452.21,71.9583 1447,77.5C 1428.46,63.1172 1413.46,66.1172 1402,86.5C 1396.35,102.823 1397.68,118.489 1406,133.5C 1420.54,147.019 1434.87,146.686 1449,132.5C 1453.48,138.61 1458.31,144.443 1463.5,150C 1452.2,162.148 1438.2,167.981 1421.5,167.5C 1386.92,162.071 1369.92,141.738 1370.5,106.5C 1369.94,80.0931 1381.27,60.9264 1404.5,49C 1411.44,46.6272 1418.44,45.1272 1425.5,44.5 Z"/></g>
<g><path style="opacity:1" fill="#000000" d="M 752.5,96.5 C 765.656,97.4956 778.99,97.8289 792.5,97.5C 792.5,105.167 792.5,112.833 792.5,120.5C 779.167,120.5 765.833,120.5 752.5,120.5C 752.5,135.5 752.5,150.5 752.5,165.5C 743.167,165.5 733.833,165.5 724.5,165.5C 724.5,126.167 724.5,86.8333 724.5,47.5C 749.5,47.5 774.5,47.5 799.5,47.5C 799.5,55.1667 799.5,62.8333 799.5,70.5C 783.833,70.5 768.167,70.5 752.5,70.5C 752.5,79.1667 752.5,87.8333 752.5,96.5 Z"/></g>
<g><path style="opacity:1" fill="#000000" d="M 848.5,96.5 C 861.656,97.4956 874.99,97.8289 888.5,97.5C 888.5,105.167 888.5,112.833 888.5,120.5C 875.167,120.5 861.833,120.5 848.5,120.5C 848.5,135.5 848.5,150.5 848.5,165.5C 839.167,165.5 829.833,165.5 820.5,165.5C 820.5,126.167 820.5,86.8333 820.5,47.5C 845.5,47.5 870.5,47.5 895.5,47.5C 895.5,55.1667 895.5,62.8333 895.5,70.5C 879.833,70.5 864.167,70.5 848.5,70.5C 848.5,79.1667 848.5,87.8333 848.5,96.5 Z"/></g>
<g><path style="opacity:1" fill="#010101" d="M 990.5,47.5 C 990.5,55.1667 990.5,62.8333 990.5,70.5C 974.991,70.1705 959.658,70.5038 944.5,71.5C 944.5,78.5 944.5,85.5 944.5,92.5C 957.323,93.4955 970.323,93.8288 983.5,93.5C 983.5,101.167 983.5,108.833 983.5,116.5C 970.5,116.5 957.5,116.5 944.5,116.5C 944.5,124.833 944.5,133.167 944.5,141.5C 960.5,141.5 976.5,141.5 992.5,141.5C 992.5,149.5 992.5,157.5 992.5,165.5C 967.167,165.5 941.833,165.5 916.5,165.5C 916.5,126.167 916.5,86.8333 916.5,47.5C 941.167,47.5 965.833,47.5 990.5,47.5 Z"/></g>
<g><path style="opacity:1" fill="#010101" d="M 1038.5,47.5 C 1049.75,47.1793 1060.91,47.5126 1072,48.5C 1083.97,87.4216 1096.14,126.255 1108.5,165C 1098.51,165.5 1088.51,165.666 1078.5,165.5C 1077.13,156.699 1075.13,148.032 1072.5,139.5C 1060.5,138.167 1048.5,138.167 1036.5,139.5C 1034.24,148.045 1031.91,156.545 1029.5,165C 1020.15,165.832 1010.82,165.665 1001.5,164.5C 1013.99,125.518 1026.33,86.5177 1038.5,47.5 Z"/></g>
<g><path style="opacity:1" fill="#000000" d="M 1210.5,96.5 C 1223.66,97.4956 1236.99,97.8289 1250.5,97.5C 1250.5,105.167 1250.5,112.833 1250.5,120.5C 1237.17,120.5 1223.83,120.5 1210.5,120.5C 1210.5,135.5 1210.5,150.5 1210.5,165.5C 1201.17,165.5 1191.83,165.5 1182.5,165.5C 1182.5,126.167 1182.5,86.8333 1182.5,47.5C 1207.5,47.5 1232.5,47.5 1257.5,47.5C 1257.5,55.1667 1257.5,62.8333 1257.5,70.5C 1241.83,70.5 1226.17,70.5 1210.5,70.5C 1210.5,79.1667 1210.5,87.8333 1210.5,96.5 Z"/></g>
<g><path style="opacity:1" fill="#fbfbfb" d="M 642.5,68.5 C 660.53,68.3521 670.697,77.3521 673,95.5C 674.996,108.522 672.996,120.855 667,132.5C 659.425,143.024 649.591,145.857 637.5,141C 628.915,134.337 624.081,125.504 623,114.5C 621.114,101.817 623.114,89.8172 629,78.5C 632.579,73.7307 637.079,70.3974 642.5,68.5 Z"/></g>
<g><path style="opacity:1" fill="#939393" d="M 990.5,47.5 C 991.492,55.3159 991.826,63.3159 991.5,71.5C 975.833,71.5 960.167,71.5 944.5,71.5C 959.658,70.5038 974.991,70.1705 990.5,70.5C 990.5,62.8333 990.5,55.1667 990.5,47.5 Z"/></g>
<g><path style="opacity:1" fill="#f7f7f7" d="M 1053.5,68.5 C 1054.59,68.62 1055.25,69.2867 1055.5,70.5C 1059.42,85.7951 1063.09,101.128 1066.5,116.5C 1058.5,116.5 1050.5,116.5 1042.5,116.5C 1046.17,100.501 1049.83,84.5014 1053.5,68.5 Z"/></g>
<g><path style="opacity:1" fill="#777777" d="M 944.5,92.5 C 957.833,92.5 971.167,92.5 984.5,92.5C 984.826,100.684 984.492,108.684 983.5,116.5C 983.5,108.833 983.5,101.167 983.5,93.5C 970.323,93.8288 957.323,93.4955 944.5,92.5 Z"/></g>
<g><path style="opacity:1" fill="#a0a0a0" d="M 752.5,96.5 C 766.167,96.5 779.833,96.5 793.5,96.5C 793.826,104.684 793.492,112.684 792.5,120.5C 792.5,112.833 792.5,105.167 792.5,97.5C 778.99,97.8289 765.656,97.4956 752.5,96.5 Z"/></g>
<g><path style="opacity:1" fill="#a0a0a0" d="M 848.5,96.5 C 862.167,96.5 875.833,96.5 889.5,96.5C 889.826,104.684 889.492,112.684 888.5,120.5C 888.5,112.833 888.5,105.167 888.5,97.5C 874.99,97.8289 861.656,97.4956 848.5,96.5 Z"/></g>
<g><path style="opacity:1" fill="#a0a0a0" d="M 1210.5,96.5 C 1224.17,96.5 1237.83,96.5 1251.5,96.5C 1251.83,104.684 1251.49,112.684 1250.5,120.5C 1250.5,112.833 1250.5,105.167 1250.5,97.5C 1236.99,97.8289 1223.66,97.4956 1210.5,96.5 Z"/></g>
<g><path style="opacity:1" fill="#000000" d="M 1159.5,109.5 C 1159.5,115.833 1159.5,122.167 1159.5,128.5C 1144.83,128.5 1130.17,128.5 1115.5,128.5C 1115.5,122.167 1115.5,115.833 1115.5,109.5C 1130.17,109.5 1144.83,109.5 1159.5,109.5 Z"/></g>
<g><path style="opacity:1" fill="#5c5c5c" d="M 1159.5,109.5 C 1160.49,115.979 1160.82,122.646 1160.5,129.5C 1145.32,129.829 1130.32,129.496 1115.5,128.5C 1130.17,128.5 1144.83,128.5 1159.5,128.5C 1159.5,122.167 1159.5,115.833 1159.5,109.5 Z"/></g>
<g><path style="opacity:1" fill="#000000" d="M 804.5,269.5 C 813.5,269.5 822.5,269.5 831.5,269.5C 831.333,303.168 831.5,336.835 832,370.5C 833.063,374.955 835.896,376.621 840.5,375.5C 841.285,382.208 842.285,388.874 843.5,395.5C 833.09,400.009 823.09,399.342 813.5,393.5C 808.47,388.596 805.637,382.596 805,375.5C 804.5,340.168 804.333,304.835 804.5,269.5 Z"/></g>
<g><path style="opacity:1" fill="#010101" d="M 522.5,278.5 C 533.748,278.179 544.915,278.513 556,279.5C 567.974,318.422 580.141,357.255 592.5,396C 582.506,396.5 572.506,396.666 562.5,396.5C 561.133,387.699 559.133,379.032 556.5,370.5C 544.5,369.167 532.5,369.167 520.5,370.5C 518.239,379.045 515.906,387.545 513.5,396C 504.149,396.832 494.816,396.665 485.5,395.5C 497.994,356.518 510.327,317.518 522.5,278.5 Z"/></g>
<g><path style="opacity:1" fill="#f2f2f3" d="M 394.5,327.5 C 384.676,320.417 374.342,314.084 363.5,308.5C 369.69,296.786 375.356,284.786 380.5,272.5C 391.918,276.306 403.252,280.306 414.5,284.5C 409.666,299.827 402.999,314.16 394.5,327.5 Z"/></g>
<g><path style="opacity:1" fill="#f7f7f7" d="M 537.5,299.5 C 538.586,299.62 539.253,300.287 539.5,301.5C 543.425,316.795 547.091,332.128 550.5,347.5C 542.5,347.5 534.5,347.5 526.5,347.5C 530.166,331.501 533.833,315.501 537.5,299.5 Z"/></g>
<g><path style="opacity:1" fill="#000000" d="M 652.5,303.5 C 671.198,302.367 682.032,311.034 685,329.5C 685.5,351.831 685.667,374.164 685.5,396.5C 676.167,396.5 666.833,396.5 657.5,396.5C 657.667,376.164 657.5,355.831 657,335.5C 655.953,329.62 652.453,326.954 646.5,327.5C 640.187,327.907 635.02,330.573 631,335.5C 630.5,355.831 630.333,376.164 630.5,396.5C 621.5,396.5 612.5,396.5 603.5,396.5C 603.5,366.5 603.5,336.5 603.5,306.5C 610.863,306.169 618.197,306.503 625.5,307.5C 626.249,310.91 627.249,314.244 628.5,317.5C 635.331,310.635 643.331,305.968 652.5,303.5 Z"/></g>
<g><path style="opacity:1" fill="#010101" d="M 744.5,303.5 C 766.982,303.815 779.482,315.148 782,337.5C 782.5,357.164 782.667,376.831 782.5,396.5C 774.833,396.5 767.167,396.5 759.5,396.5C 759.037,393.518 758.704,390.518 758.5,387.5C 753.353,390.432 748.019,393.265 742.5,396C 723.915,401.957 711.415,395.79 705,377.5C 702.78,359.354 710.614,347.854 728.5,343C 737.009,340.531 745.676,339.031 754.5,338.5C 754.343,331.839 751.01,327.672 744.5,326C 734.636,325.343 725.636,327.843 717.5,333.5C 713.787,327.911 710.454,322.078 707.5,316C 718.759,308.356 731.092,304.19 744.5,303.5 Z"/></g>
<g><path style="opacity:1" fill="#020202" d="M 980.5,303.5 C 993.669,303.08 1005.5,306.747 1016,314.5C 1013.22,320.666 1009.39,326.333 1004.5,331.5C 997.18,325.562 988.847,323.396 979.5,325C 975.325,329.306 975.658,333.306 980.5,337C 989.884,340.193 998.884,344.193 1007.5,349C 1020.94,363.258 1020.61,377.258 1006.5,391C 985.098,401.618 964.765,399.785 945.5,385.5C 949.667,379.833 953.833,374.167 958,368.5C 966.109,375.981 975.609,378.814 986.5,377C 991.798,374.512 992.798,370.845 989.5,366C 979.202,361.569 969.202,356.569 959.5,351C 948.958,340.121 947.791,328.287 956,315.5C 962.877,308.717 971.043,304.717 980.5,303.5 Z"/></g>
<g><path style="opacity:1" fill="#020202" d="M 1070.5,303.5 C 1093.21,304.375 1106.38,316.042 1110,338.5C 1110.33,345.505 1110.17,352.505 1109.5,359.5C 1091.83,359.5 1074.17,359.5 1056.5,359.5C 1057.6,367.523 1061.93,373.023 1069.5,376C 1078.28,378.489 1086.61,377.489 1094.5,373C 1095.83,372.333 1097.17,372.333 1098.5,373C 1101.04,377.914 1103.71,382.747 1106.5,387.5C 1094.92,395.815 1081.92,399.315 1067.5,398C 1045.87,394.042 1033.37,381.208 1030,359.5C 1026.56,334.546 1036.06,316.712 1058.5,306C 1062.64,305.161 1066.64,304.327 1070.5,303.5 Z"/></g>
<g><path style="opacity:1" fill="#020202" d="M 1156.5,303.5 C 1169.67,303.08 1181.5,306.747 1192,314.5C 1189.22,320.666 1185.39,326.333 1180.5,331.5C 1173.18,325.562 1164.85,323.396 1155.5,325C 1151.33,329.306 1151.66,333.306 1156.5,337C 1165.88,340.193 1174.88,344.193 1183.5,349C 1196.94,363.258 1196.61,377.258 1182.5,391C 1161.1,401.618 1140.77,399.785 1121.5,385.5C 1125.67,379.833 1129.83,374.167 1134,368.5C 1142.11,375.981 1151.61,378.814 1162.5,377C 1167.8,374.512 1168.8,370.845 1165.5,366C 1155.2,361.569 1145.2,356.569 1135.5,351C 1124.96,340.121 1123.79,328.287 1132,315.5C 1138.88,308.717 1147.04,304.717 1156.5,303.5 Z"/></g>
<g><path style="opacity:1" fill="#010101" d="M 848.5,306.5 C 857.833,306.5 867.167,306.5 876.5,306.5C 883.038,327.446 889.371,348.446 895.5,369.5C 900.788,348.389 906.455,327.389 912.5,306.5C 921.167,306.5 929.833,306.5 938.5,306.5C 928.11,337.502 917.61,368.502 907,399.5C 899.354,424.161 882.854,434.328 857.5,430C 856.572,429.612 855.905,428.945 855.5,428C 857.078,422.188 858.578,416.355 860,410.5C 872.191,411.662 879.691,406.329 882.5,394.5C 871.157,365.15 859.823,335.817 848.5,306.5 Z"/></g>
<g><path style="opacity:1" fill="#e6e6e7" d="M 363.5,308.5 C 374.342,314.084 384.676,320.417 394.5,327.5C 387.369,339.436 379.036,350.436 369.5,360.5C 360.827,351.827 351.827,343.494 342.5,335.5C 349.913,326.762 356.913,317.762 363.5,308.5 Z"/></g>
<g><path style="opacity:1" fill="#f8f8f8" d="M 1086.5,340.5 C 1076.11,341.141 1066.11,340.474 1056.5,338.5C 1058.33,330.171 1063.5,325.504 1072,324.5C 1082.12,325.073 1086.95,330.406 1086.5,340.5 Z"/></g>
<g><path style="opacity:1" fill="#aaaaaa" d="M 1056.5,338.5 C 1066.11,340.474 1076.11,341.141 1086.5,340.5C 1076.35,341.494 1066.01,341.828 1055.5,341.5C 1055.26,340.209 1055.6,339.209 1056.5,338.5 Z"/></g>
<g><path style="opacity:1" fill="#d8d8db" d="M 342.5,335.5 C 351.827,343.494 360.827,351.827 369.5,360.5C 359.68,371.328 348.68,380.661 336.5,388.5C 330.251,378.246 323.585,368.246 316.5,358.5C 325.502,351.313 334.168,343.647 342.5,335.5 Z"/></g>
<g><path style="opacity:1" fill="#f7f7f7" d="M 750.5,354.5 C 751.833,354.5 753.167,354.5 754.5,354.5C 757.461,370.034 751.128,377.2 735.5,376C 728.898,370.844 728.898,365.51 735.5,360C 740.434,357.637 745.434,355.804 750.5,354.5 Z"/></g>
<g><path style="opacity:1" fill="#ccccd0" d="M 316.5,358.5 C 323.585,368.246 330.251,378.246 336.5,388.5C 330.011,393.582 323.011,397.915 315.5,401.5C 310.848,390.191 305.182,379.525 298.5,369.5C 304.158,365.335 310.158,361.668 316.5,358.5 Z"/></g>
<g><path style="opacity:1" fill="#c0c0c5" d="M 298.5,369.5 C 305.182,379.525 310.848,390.191 315.5,401.5C 307.803,405.679 299.803,409.346 291.5,412.5C 287.973,401.754 284.14,391.088 280,380.5C 279.583,379.244 278.75,378.577 277.5,378.5C 284.316,375.264 291.316,372.264 298.5,369.5 Z"/></g>
<g><path style="opacity:1" fill="#22234f" d="M 148.5,372.5 C 151.618,373.559 154.618,374.892 157.5,376.5C 152.816,387.572 148.149,398.572 143.5,409.5C 139.884,408.686 136.551,407.352 133.5,405.5C 138.228,394.377 143.228,383.377 148.5,372.5 Z"/></g>
<g><path style="opacity:1" fill="#323355" d="M 157.5,376.5 C 160.574,377.302 163.574,378.302 166.5,379.5C 162.161,390.854 157.828,402.187 153.5,413.5C 149.863,412.737 146.53,411.403 143.5,409.5C 148.149,398.572 152.816,387.572 157.5,376.5 Z"/></g>
<g><path style="opacity:1" fill="#b4b4ba" d="M 277.5,378.5 C 278.75,378.577 279.583,379.244 280,380.5C 284.14,391.088 287.973,401.754 291.5,412.5C 283.628,415.235 275.628,417.568 267.5,419.5C 265.005,408.852 262.505,398.185 260,387.5C 259.764,385.881 258.931,384.881 257.5,384.5C 263.893,381.928 270.559,379.928 277.5,378.5 Z"/></g>
<g><path style="opacity:1" fill="#494a63" d="M 166.5,379.5 C 170.095,380.697 173.761,381.697 177.5,382.5C 175.581,394.51 172.581,406.177 168.5,417.5C 167.5,417.5 166.5,417.5 165.5,417.5C 161.195,416.765 157.195,415.432 153.5,413.5C 157.828,402.187 162.161,390.854 166.5,379.5 Z"/></g>
<g><path style="opacity:1" fill="#a6a6ad" d="M 257.5,384.5 C 258.931,384.881 259.764,385.881 260,387.5C 262.505,398.185 265.005,408.852 267.5,419.5C 257.617,421.814 247.617,423.48 237.5,424.5C 236.093,412.545 235.093,400.545 234.5,388.5C 227.5,388.5 220.5,388.5 213.5,388.5C 211.265,388.795 209.265,388.461 207.5,387.5C 224.272,388.014 240.938,387.014 257.5,384.5 Z"/></g>
<g><path style="opacity:1" fill="#80808d" d="M 194.5,386.5 C 198.798,387.2 203.131,387.533 207.5,387.5C 209.265,388.461 211.265,388.795 213.5,388.5C 212.978,400.517 212.311,412.517 211.5,424.5C 209.5,424.5 207.5,424.5 205.5,424.5C 199.596,424.679 193.929,424.012 188.5,422.5C 190.59,410.541 192.59,398.541 194.5,386.5 Z"/></g>
<g><path style="opacity:1" fill="#9697a0" d="M 213.5,388.5 C 220.5,388.5 227.5,388.5 234.5,388.5C 235.093,400.545 236.093,412.545 237.5,424.5C 226.673,425.586 216.006,425.586 205.5,424.5C 207.5,424.5 209.5,424.5 211.5,424.5C 212.311,412.517 212.978,400.517 213.5,388.5 Z"/></g>
<g><path style="opacity:1" fill="#666677" d="M 177.5,382.5 C 183.033,384.3 188.699,385.633 194.5,386.5C 192.59,398.541 190.59,410.541 188.5,422.5C 180.58,421.451 172.913,419.785 165.5,417.5C 166.5,417.5 167.5,417.5 168.5,417.5C 172.581,406.177 175.581,394.51 177.5,382.5 Z"/></g>
</svg>
