<?xml version="1.0" standalone="no"?>
<!DOCTYPE svg PUBLIC "-//W3C//DTD SVG 20010904//EN"
 "http://www.w3.org/TR/2001/REC-SVG-20010904/DTD/svg10.dtd">
<svg version="1.0" xmlns="http://www.w3.org/2000/svg"
 width="300.000000pt" height="31.000000pt" viewBox="0 0 300.000000 31.000000"
 preserveAspectRatio="xMidYMid meet">
<metadata>
Created by potrace 1.10, written by Peter Selinger 2001-2011
</metadata>
<g transform="translate(0.000000,31.000000) scale(0.100000,-0.100000)"
fill="#000000" stroke="none">
<path d="M364 234 c-37 -40 -43 -42 -60 -29 -26 20 -83 19 -106 -2 -17 -15
-19 -15 -36 0 -39 36 -124 14 -142 -36 -15 -45 -13 -62 16 -96 20 -24 34 -31
63 -31 20 0 46 7 58 15 18 13 26 13 43 3 11 -7 20 -16 20 -19 0 -12 64 1 82
18 17 15 19 15 36 0 21 -20 112 -23 129 -6 8 8 17 8 31 0 31 -16 103 -13 123
5 16 14 20 14 44 -2 30 -19 79 -21 101 -3 11 9 21 9 40 0 14 -6 48 -11 77 -11
41 0 55 4 64 20 8 12 9 21 3 25 -6 3 -10 24 -10 46 0 31 -7 47 -29 69 -25 26
-32 28 -61 20 -17 -5 -38 -14 -45 -20 -10 -8 -21 -6 -45 9 -34 20 -75 16 -106
-10 -21 -17 -42 4 -26 24 9 10 8 18 -1 32 -22 29 -64 22 -106 -19 -35 -34 -60
-48 -46 -25 4 5 4 21 1 33 -4 17 -15 25 -38 29 -29 4 -38 -1 -74 -39z m96 2
c0 -9 -7 -12 -21 -9 -12 4 -25 0 -30 -8 -15 -25 -10 -31 22 -24 24 6 30 4 27
-6 -3 -9 -15 -13 -31 -11 -26 3 -27 2 -27 -47 0 -50 1 -51 30 -51 17 0 30 -4
30 -10 0 -5 -25 -10 -55 -10 -42 0 -55 4 -55 15 0 9 6 12 15 9 12 -5 15 4 15
46 0 42 -3 51 -15 46 -9 -3 -15 0 -15 10 0 10 6 14 15 10 9 -3 15 0 15 9 0 7
7 21 16 29 19 20 64 21 64 2z m150 1 c0 -8 -10 -13 -22 -13 -14 1 -24 -6 -26
-18 -3 -16 0 -18 22 -12 20 5 26 3 26 -9 0 -11 -6 -14 -25 -9 -24 6 -25 5 -25
-46 0 -50 1 -52 25 -48 17 4 25 1 25 -8 0 -10 -15 -14 -55 -14 -30 0 -55 5
-55 10 0 6 9 10 20 10 17 0 20 7 20 50 0 42 -3 50 -16 48 -10 -2 -19 3 -22 11
-3 10 0 12 12 8 11 -4 19 -1 23 11 3 9 10 23 16 30 13 16 57 16 57 -1z m-474
-45 c19 -13 25 -42 9 -42 -8 0 -15 7 -15 15 0 18 -41 20 -58 3 -7 -7 -12 -25
-12 -40 0 -37 40 -59 72 -39 26 16 39 3 14 -15 -26 -18 -56 -18 -84 2 -31 21
-31 87 0 108 24 17 56 20 74 8z m155 -10 c44 -36 18 -122 -38 -122 -55 0 -84
79 -43 120 25 25 51 25 81 2z m461 6 c8 -7 18 -23 21 -35 5 -22 2 -23 -49 -23
-56 0 -65 -8 -38 -34 18 -19 38 -20 65 -6 15 8 19 7 19 -4 0 -16 -50 -30 -78
-22 -19 7 -42 45 -42 72 0 21 45 64 68 64 10 0 25 -6 34 -12z m139 2 c15 -8
19 -22 19 -60 0 -28 5 -50 10 -50 6 0 10 -4 10 -10 0 -14 -27 -13 -32 1 -3 8
-10 8 -26 -2 -17 -10 -26 -11 -40 -3 -40 25 -20 74 30 74 23 0 29 4 26 18 -3
12 -12 16 -36 14 -49 -3 -39 20 11 27 5 0 17 -4 28 -9z m-393 -33 c12 -15 10
-43 -4 -57 -14 -14 -64 10 -64 30 0 8 10 20 23 26 30 16 33 16 45 1z m-151
-19 c-3 -8 -6 -5 -6 6 -1 11 2 17 5 13 3 -3 4 -12 1 -19z m279 -12 c0 -30 -2
-33 -18 -23 -28 18 -30 37 -5 47 12 5 22 9 22 9 0 1 0 -14 1 -33z m-496 -2 c0
-16 -26 -19 -35 -4 -3 6 -4 14 0 20 8 13 35 1 35 -16z"/>
<path d="M218 155 c-22 -49 25 -98 60 -63 7 7 12 24 12 38 0 51 -52 69 -72 25z
m38 -42 c-11 -11 -19 6 -11 24 8 17 8 17 12 0 3 -10 2 -21 -1 -24z"/>
<path d="M693 174 c-26 -11 -12 -29 22 -29 26 0 35 4 33 15 -3 15 -33 23 -55
14z"/>
<path d="M834 109 c-10 -17 12 -32 35 -24 29 9 27 35 -3 35 -14 0 -28 -5 -32
-11z"/>
<path d="M1132 233 c-33 -39 -39 -57 -22 -68 14 -8 13 -51 -2 -74 -9 -15 -9
-23 1 -35 18 -22 108 -22 132 0 16 15 20 15 41 0 29 -20 92 -21 112 0 14 14
18 14 38 0 33 -24 93 -20 118 6 19 20 19 23 3 40 -13 14 -14 21 -5 30 7 7 12
24 12 39 0 50 -87 69 -136 29 -10 -9 -19 -8 -36 4 -29 21 -86 21 -109 0 -22
-20 -42 -9 -34 17 9 28 -12 49 -49 49 -24 0 -39 -9 -64 -37z m98 4 c0 -7 -11
-13 -27 -12 -19 0 -29 -6 -31 -18 -3 -14 2 -17 20 -15 13 2 23 -1 23 -7 0 -5
-10 -8 -22 -7 -21 3 -23 0 -23 -48 0 -50 1 -51 27 -48 15 2 28 -2 30 -9 3 -10
-11 -13 -51 -13 -43 0 -56 4 -56 15 0 9 6 12 15 9 12 -5 15 4 15 46 0 42 -3
51 -15 46 -9 -3 -15 0 -15 9 0 9 6 12 15 9 9 -4 15 0 15 9 0 9 7 23 16 31 19
19 64 21 64 3z m141 -47 c23 -13 26 -40 4 -40 -8 0 -15 7 -15 15 0 17 -23 20
-51 5 -12 -7 -19 -21 -19 -41 0 -38 37 -58 76 -40 20 9 25 9 22 -1 -8 -24 -57
-34 -86 -17 -21 12 -28 23 -30 56 -2 33 1 44 20 57 26 19 51 20 79 6z m147 4
c22 -6 32 -44 12 -44 -5 0 -10 7 -10 15 0 20 -44 20 -64 -1 -22 -21 -20 -47 5
-69 17 -16 25 -17 49 -8 34 13 51 -1 21 -16 -51 -28 -111 3 -111 57 0 54 41
81 98 66z m-275 -70 c6 -31 5 -31 -18 -20 -29 13 -33 43 -7 48 21 5 18 9 25
-28z m122 -5 c-8 -12 -45 2 -45 17 0 11 5 11 25 2 13 -6 22 -14 20 -19z m139
15 c23 -9 20 -21 -6 -20 -12 0 -23 7 -26 14 -4 13 7 15 32 6z"/>
<path d="M2180 255 c-7 -9 -9 -22 -4 -32 9 -21 11 -32 13 -95 1 -56 26 -88 69
-88 53 0 73 53 27 70 -23 9 -25 14 -25 73 0 36 -5 68 -12 75 -17 17 -53 15
-68 -3z m60 -91 l0 -86 26 6 c19 5 25 3 22 -6 -6 -16 -38 -21 -57 -9 -10 6
-13 30 -12 85 1 62 -1 76 -14 76 -8 0 -15 5 -15 10 0 6 11 10 25 10 25 0 25
-1 25 -86z"/>
<path d="M2671 230 l-33 -41 -31 19 c-33 19 -55 19 -94 0 -17 -8 -26 -8 -37 1
-18 15 -56 -2 -56 -24 0 -21 -8 -19 -34 12 -15 17 -29 24 -40 20 -28 -11 -29
-35 -6 -88 18 -43 20 -56 10 -80 -16 -37 -6 -49 38 -49 43 0 56 15 79 93 13
44 16 49 26 32 7 -14 7 -20 -1 -23 -18 -6 -14 -27 6 -45 24 -22 95 -22 117 -1
15 15 17 15 34 0 23 -21 113 -25 135 -7 8 7 20 9 27 6 6 -4 27 -11 47 -16 31
-7 38 -4 65 22 22 23 27 35 22 52 -4 12 -8 36 -9 53 -4 46 -13 54 -61 54 -64
0 -108 -53 -73 -88 20 -20 -5 -37 -31 -22 -20 10 -21 17 -17 72 9 97 -27 117
-83 48z m65 9 c8 -14 -18 -31 -30 -19 -9 9 0 30 14 30 5 0 12 -5 16 -11z
m-359 -76 c8 -21 20 -49 26 -63 9 -23 11 -21 29 38 11 34 24 62 29 62 5 0 9
-3 9 -7 0 -20 -48 -153 -59 -167 -17 -21 -51 -21 -51 0 0 10 6 14 14 11 19 -8
45 22 28 32 -9 6 -62 112 -62 126 0 3 5 5 11 5 5 0 17 -17 26 -37z m211 31
c35 -10 26 -24 -14 -21 -51 3 -55 -19 -6 -33 22 -5 43 -18 46 -27 9 -22 -21
-53 -51 -53 -31 0 -65 18 -58 31 4 6 13 5 25 -1 10 -5 28 -10 40 -10 34 0 20
32 -20 45 -40 13 -51 42 -24 62 20 14 29 15 62 7z m142 -57 c0 -51 2 -58 18
-55 11 2 20 -1 21 -7 0 -5 -24 -11 -54 -13 -34 -2 -55 1 -55 8 0 5 11 10 25
10 23 0 25 3 25 51 0 50 -1 51 -25 45 -18 -5 -25 -2 -25 8 0 10 10 14 35 13
l35 -2 0 -58z m168 57 c35 -10 26 -24 -14 -21 -47 3 -56 -19 -13 -30 57 -15
66 -66 14 -79 -30 -7 -79 11 -70 26 3 6 15 5 30 -2 27 -12 59 -4 53 14 -2 6
-20 17 -39 23 -39 13 -50 42 -23 62 20 14 29 15 62 7z m-235 -38 c23 -18 22
-38 -4 -54 -18 -12 -20 -11 -17 5 2 10 -3 23 -11 29 -8 6 -11 16 -7 22 9 15
17 15 39 -2z"/>
<path d="M1737 202 c-9 -10 -14 -27 -11 -39 3 -11 1 -24 -5 -27 -17 -11 -13
-61 7 -79 21 -19 127 -24 137 -7 5 8 11 8 20 0 18 -15 42 -2 54 28 5 15 10 20
10 11 1 -9 10 -24 20 -33 15 -14 24 -15 39 -7 15 8 27 7 46 -3 17 -9 40 -11
72 -6 50 8 68 24 53 51 -5 10 -9 33 -9 51 0 39 -7 51 -37 67 -31 16 -63 14
-85 -6 -18 -16 -21 -16 -47 0 -32 18 -116 21 -143 3 -13 -8 -21 -7 -30 2 -18
18 -73 15 -91 -6z m88 -22 c13 -14 16 -29 12 -55 -4 -26 -2 -38 9 -42 21 -8
17 -23 -6 -23 -11 0 -20 4 -20 9 0 5 -13 4 -29 -2 -23 -8 -33 -8 -45 2 -36 30
-12 71 41 71 18 0 33 4 33 9 0 18 -29 32 -54 25 -15 -4 -26 -2 -26 4 0 10 20
19 51 21 9 0 24 -8 34 -19z m80 10 c4 -6 14 -5 29 1 17 8 29 8 45 0 18 -10 21
-21 21 -71 0 -77 -18 -79 -22 -3 -2 44 -7 59 -19 61 -28 5 -49 -26 -49 -74 0
-24 -4 -44 -10 -44 -6 0 -10 27 -10 60 0 33 -4 60 -10 60 -5 0 -10 5 -10 10 0
13 27 13 35 0z m216 0 c15 -8 19 -22 19 -60 0 -28 5 -50 10 -50 6 0 10 -4 10
-10 0 -14 -27 -13 -32 1 -3 8 -10 8 -26 -2 -17 -10 -26 -11 -40 -3 -40 25 -20
74 30 74 23 0 29 4 26 18 -3 12 -12 16 -36 14 -49 -3 -39 20 11 27 5 0 17 -4
28 -9z"/>
<path d="M1755 110 c-3 -5 -3 -14 0 -20 11 -17 44 -11 55 10 10 18 8 20 -19
20 -16 0 -33 -4 -36 -10z"/>
<path d="M2064 109 c-10 -17 12 -32 35 -24 29 9 27 35 -3 35 -14 0 -28 -5 -32
-11z"/>
<path d="M964 159 c-26 -29 0 -54 58 -58 39 -2 48 1 58 19 27 50 -75 84 -116
39z m106 -19 c0 -5 -23 -10 -51 -10 -31 0 -48 4 -44 10 3 6 26 10 51 10 24 0
44 -4 44 -10z"/>
<path d="M1580 160 c-8 -14 -7 -25 2 -40 17 -27 88 -28 111 -2 15 16 15 20 1
40 -21 30 -98 32 -114 2z m100 -20 c0 -5 -20 -10 -45 -10 -25 0 -45 5 -45 10
0 6 20 10 45 10 25 0 45 -4 45 -10z"/>
</g>
</svg>
